<?xml version="1.0" encoding="UTF-8"?>
<!DOCTYPE svg PUBLIC "-//W3C//DTD SVG 1.1//EN" "http://www.w3.org/Graphics/SVG/1.1/DTD/svg11.dtd">
<!-- Creator: CorelDRAW 2018 (64 Bit) -->
<svg xmlns="http://www.w3.org/2000/svg" xml:space="preserve" width="109px" height="60px" version="1.1" style="shape-rendering:geometricPrecision; text-rendering:geometricPrecision; image-rendering:optimizeQuality; fill-rule:evenodd; clip-rule:evenodd"
viewBox="0 0 29.97 16.5"
 xmlns:xlink="http://www.w3.org/1999/xlink">
 <defs>
  <style type="text/css">
   <![CDATA[
    .fil1 {fill:#A08247;fill-rule:nonzero}
    .fil0 {fill:white;fill-rule:nonzero}
    .fil2 {fill:#222222;fill-rule:nonzero}
   ]]>
  </style>
 </defs>
 <g id="Capa_x0020_1">
  <metadata id="CorelCorpID_0Corel-Layer"/>
  <g id="_1450177055952">
   <path class="fil0" d="M0 14.95c3.8,0.96 9.23,1.55 15.27,1.55 5.84,0 10.93,-0.55 14.7,-1.45l0 -12.76c-0.84,0 -3.14,-0.04 -5.57,-0.76 -3.21,-0.96 -6.46,-1.53 -9.29,-1.53l-0.43 0c-2.83,0 -6.07,0.57 -9.29,1.53 -2.43,0.72 -4.55,0.76 -5.39,0.76l0 12.66z"/>
   <path class="fil1" d="M0.94 14.21c3.79,0.86 9,1.36 14.33,1.36 5.11,0 9.99,-0.45 13.76,-1.27l0 -11.09c-1.72,-0.07 -3.41,-0.34 -4.9,-0.78 -3.28,-0.98 -6.39,-1.49 -9.02,-1.49l-0.43 0c-2.62,0 -5.74,0.51 -9.02,1.49 -1.5,0.44 -3.09,0.71 -4.72,0.78l0 11zm14.33 1.62c-5.39,0 -10.68,-0.5 -14.5,-1.38l-0.1 -0.03 0 -11.47 0.13 0c1.65,-0.07 3.26,-0.33 4.79,-0.78 3.3,-0.98 6.44,-1.5 9.09,-1.5l0.43 0c2.65,0 5.8,0.52 9.1,1.5 1.5,0.45 3.22,0.72 4.96,0.78l0.13 0 0 11.57 -0.11 0.02c-3.8,0.83 -8.75,1.29 -13.92,1.29z"/>
   <path class="fil1" d="M25.13 8.11c0,0 -0.01,0 -0.01,0 -0.05,0.01 -0.07,0.03 -0.09,0.06 -0.01,0.02 -0.02,0.05 -0.02,0.09 -0.01,0.02 -0.01,0.03 -0.01,0.05 0,0.02 0,0.03 0,0.04 0,0.02 0,0.04 0,0.06 0,0.01 0.01,0.03 0.01,0.04l0.38 1.54 0 0c0.04,0.11 0.09,0.27 0.16,0.42 0.06,0.12 0.12,0.24 0.18,0.32 0.01,0.02 0.02,0.03 0.03,0.05 0.01,0.01 0.02,0.02 0.02,0.02 0.01,0.01 0.02,0.02 0.03,0.02 0.01,0 0.01,0.01 0.02,0.01 -0.01,0 -0.01,-0.01 -0.01,-0.01 -0.01,-0.01 -0.02,-0.02 -0.03,-0.04 -0.06,-0.09 -0.12,-0.21 -0.18,-0.33 -0.07,-0.15 -0.12,-0.3 -0.16,-0.41l0 -0.01 -0.38 -1.53c0,-0.02 -0.01,-0.03 -0.01,-0.05 0,-0.02 0,-0.03 0,-0.05 0,-0.01 0,-0.03 0,-0.05 0,-0.01 0,-0.03 0.01,-0.05 0,-0.03 0.01,-0.06 0.02,-0.09 0.02,-0.02 0.04,-0.04 0.09,-0.05 0,0 0.01,-0.01 0.01,-0.01 0,0 0,-0.01 0,-0.02 0,-0.02 0,-0.03 -0.01,-0.03 0,-0.01 -0.02,-0.01 -0.03,-0.01l-0.02 0c0,0.01 0,0.02 0,0.02zm-10.5 -0.81l-0.51 0 0 0 -0.56 0 0 0 -0.57 0c0,0 -0.01,0 -0.01,0 0,0 0,0 0,0 0,0.02 0.01,0.03 0.02,0.04 0.01,0 0.02,0.01 0.05,0.01l0.57 0 0 0 0.56 0 0.51 0 0.02 -0.1 -0.07 0 -0.01 0.05zm0.15 -0.44c0,-0.01 0,-0.03 -0.01,-0.04 0,0 -0.01,-0.01 -0.03,-0.01l0 0c-0.01,0 -0.02,0.01 -0.02,0.01l-0.03 0.17 0.07 -0.04 0.02 -0.09zm2.39 0.41c0,0 -0.01,0 -0.02,0 -0.01,-0.01 -0.02,-0.02 -0.03,-0.02 0,0 0,0 0,0.01 0,0.01 0,0.02 0,0.02 -0.01,0.01 -0.01,0.01 -0.01,0.01l0 0 0 0c0,0 0,0.01 0,0.01 0,0 -0.01,0 -0.01,0l0 0 0 0c0,0 -0.01,0 -0.01,0 0,0 -0.01,0 -0.01,0l0 0 -0.01 0 0 0 -0.01 0 0 0 -0.82 0 0 0c0,0 0,0 0,0.01 0,0.02 0,0.03 0.01,0.03 0.01,0.01 0.03,0.01 0.05,0.01l0.82 0 0 0 0.01 0 0 0 0.01 0 0 0c0,0 0.01,0 0.01,0 0,0 0.01,-0.01 0.01,-0.01l0 0 0 0c0,0 0.01,0 0.01,0 0,0 0,0 0,0l0 0 0 0c0,-0.01 0,-0.01 0.01,-0.01 0,-0.01 0,-0.02 0,-0.02 0,-0.02 0,-0.03 -0.01,-0.04zm-1.6 0c-0.02,-0.01 -0.03,-0.01 -0.04,-0.02 0,0 0,0.01 0,0.01 0,0.02 0,0.03 -0.01,0.04 -0.01,0 -0.03,0 -0.05,0l-0.65 0 -0.01 0 0 0.01c0,0.01 0.01,0.02 0.01,0.03 0.01,0.01 0.02,0.01 0.04,0.01l0 0 0 0 0.01 0 0.01 0 0.65 0c0.02,0 0.04,0 0.05,-0.01 0.01,0 0.01,-0.01 0.01,-0.03 0,-0.02 0,-0.03 0,-0.04 -0.01,0 -0.01,0 -0.02,0zm0.28 -2.09l-0.01 0.06 -0.24 0.96 0 0.02 0.07 0 0.22 -0.9 -0.02 -0.08 -0.02 -0.06zm0.68 -0.34c-0.01,0 -0.01,0 -0.02,0 -0.04,0.01 -0.06,0.03 -0.07,0.05 -0.02,0.03 -0.02,0.05 -0.03,0.09 0,0.01 0,0.03 0,0.04 -0.01,0.02 -0.01,0.04 -0.01,0.04 0,0.02 0.01,0.04 0.01,0.05 0,0.02 0,0.03 0,0.05l0.34 1.4 0 0c0.01,0.02 0.02,0.05 0.03,0.08 0.02,0.09 0.05,0.2 0.1,0.28 0.02,0.04 0.05,0.07 0.07,0.09 0.02,0.01 0.03,0.02 0.04,0.03 -0.02,-0.03 -0.04,-0.05 -0.05,-0.07 -0.05,-0.09 -0.08,-0.2 -0.1,-0.28 -0.01,-0.03 -0.02,-0.06 -0.03,-0.09l0 0 -0.34 -1.4c0,-0.01 0,-0.03 0,-0.04 0,-0.02 -0.01,-0.03 -0.01,-0.05 0,-0.01 0,-0.03 0.01,-0.04 0,-0.02 0,-0.03 0,-0.05 0.01,-0.03 0.01,-0.06 0.03,-0.08 0.01,-0.02 0.03,-0.04 0.07,-0.05 0.01,0 0.01,0 0.02,-0.01 0,0 0,-0.01 0,-0.02 0,-0.01 0,-0.02 -0.01,-0.02 0,0 -0.01,-0.01 -0.01,-0.01l-0.04 0c0,0 0,0.01 0,0.01zm-0.97 1.81l0.67 0 -0.01 -0.04 0 -0.01 -0.72 0 0 0.01 -0.06 0.26c-0.01,0.01 -0.01,0.03 -0.01,0.04 -0.01,0.01 -0.01,0.03 -0.01,0.04 0,0.04 0,0.08 0.02,0.11 0.01,0.03 0.03,0.05 0.07,0.06 -0.01,-0.01 -0.01,-0.01 -0.02,-0.01 -0.01,-0.03 -0.01,-0.07 -0.01,-0.11 0,-0.02 0,-0.03 0.01,-0.05 0,-0.01 0,-0.02 0,-0.04l0.07 -0.25 0 -0.01zm-1.6 -1.78c0,0 -0.01,0.01 -0.02,0.01 -0.02,0 -0.03,0.01 -0.05,0.02 -0.02,0.01 -0.04,0.02 -0.05,0.04l0 0 0 0 -0.01 0c-0.04,0.06 -0.08,0.11 -0.1,0.17 -0.02,0.06 -0.02,0.13 -0.02,0.22l0 1.45 0 0.04c0,0.01 0,0.02 0,0.04l0 0 0 0c0.01,0.02 0.01,0.03 0.03,0.04 0.01,0 0.02,0.01 0.03,0.01 0,0 0,0 0,0l0 -0.01 0 0c0,-0.01 0,-0.02 0,-0.04l0 -0.04 0 -1.45c0,-0.08 0,-0.15 0.02,-0.21 0.02,-0.07 0.06,-0.12 0.1,-0.17l0.01 -0.01 0 0 0 0c0.01,-0.01 0.03,-0.03 0.05,-0.04 0.02,-0.01 0.03,-0.01 0.05,-0.02 0.01,0 0.02,0 0.02,-0.01 0.01,0 0.01,-0.01 0.01,-0.03 0,-0.02 -0.01,-0.03 -0.01,-0.03 -0.01,-0.01 -0.03,-0.01 -0.05,-0.01 0,0.02 0,0.03 -0.01,0.03zm-8.03 3.64c-0.03,-0.02 -0.06,-0.03 -0.09,-0.03l-0.76 0 0 0.02 0 0.63 0.02 0 0.04 0 0 -0.59 0 -0.01 0.76 0c0.03,0 0.05,0.01 0.07,0.02 -0.01,-0.02 -0.02,-0.03 -0.04,-0.04zm0.3 -0.42l-0.05 0 0.05 0.49c0,0.01 0,0.02 -0.01,0.03 0,0 0,0 -0.01,0.01 0.01,0 0.01,0.01 0.02,0.02 0,0.01 0.01,0.03 0.03,0.03 0,0 0,0 0.01,0 0,0 0.01,-0.01 0.01,-0.02 0.01,-0.01 0.01,-0.02 0.01,-0.03l-0.06 -0.53zm-0.32 0.95l0 0c-0.01,0 -0.02,0 -0.02,0 0,0 0,0 0,0l0 0.58c0,0.02 0,0.03 -0.01,0.04 0,0 -0.01,0 -0.01,0 0,0.01 0.01,0.02 0.01,0.03 0,0.01 0.01,0.01 0.01,0.02 0,0 0.01,0 0.02,0l0 0c0.02,0 0.03,0 0.03,-0.01 0.01,-0.01 0.01,-0.02 0.01,-0.04l0 -0.57c0,-0.02 0,-0.04 -0.01,-0.04 0,-0.01 -0.01,-0.01 -0.03,-0.01zm-0.29 0.52c-0.03,-0.02 -0.06,-0.03 -0.09,-0.03l-0.07 0 0 0 -0.17 0 -0.19 0 -0.02 0 0 0.66 0 0.01c0.01,0.08 0.01,0.15 0.03,0.21 0.02,0.07 0.05,0.12 0.1,0.15 0.02,0.01 0.03,0.02 0.04,0.02 0,0 0,0 0,0 -0.03,-0.03 -0.06,-0.07 -0.08,-0.12 -0.02,-0.07 -0.02,-0.14 -0.03,-0.22l0 0 0 -0.67 0.02 0 0.19 0 0.03 0 0 0 0.21 0c0.01,0 0.03,0 0.05,0.01 -0.01,0 -0.01,-0.01 -0.02,-0.02zm-0.28 1.25c-0.01,-0.01 -0.02,-0.02 -0.03,-0.02 -0.01,-0.01 -0.01,-0.01 -0.02,-0.01 0.01,0 0.01,0.01 0.01,0.01 0,0.04 -0.03,0.04 -0.07,0.05 0,0 -0.02,0 -0.03,0 -0.02,0 -0.03,0 -0.05,0 -0.01,0 -0.03,0.01 -0.04,0.01 -0.01,0 -0.01,0 -0.02,0 0,0 -0.01,0 -0.01,0 -0.17,0.03 -0.3,0.05 -0.43,0.08 -0.13,0.02 -0.25,0.06 -0.4,0.11 0,0 0,0 0,0 -0.01,0.01 -0.03,0.01 -0.03,0.03l0 0.01c0,0 0,0.01 0.01,0.01 0,0 0,0.01 0,0.01 0.01,0 0.01,0 0.02,0 0.02,0 0.03,0 0.05,-0.01l0 0 0 0c0.15,-0.06 0.28,-0.09 0.41,-0.12 0.13,-0.03 0.26,-0.05 0.43,-0.07 0,0 0.01,0 0.01,0 0,-0.01 0.01,-0.01 0.02,-0.01 0.01,0 0.03,0 0.04,0 0.02,0 0.03,0 0.05,0 0.01,-0.01 0.02,-0.01 0.03,-0.01 0.04,0 0.06,0 0.07,-0.04 0,-0.01 -0.01,-0.01 -0.01,-0.02 0,-0.01 0,-0.01 -0.01,-0.01zm2.09 -1.08c-0.01,-0.01 -0.02,-0.02 -0.03,-0.03 -0.02,-0.01 -0.04,-0.02 -0.06,-0.03l0 0 -0.01 0c-0.02,0 -0.03,0 -0.04,0 -0.02,0 -0.03,0 -0.04,0l-0.05 0 -0.02 0 0 0.66 0 0c0.01,0.04 0.03,0.07 0.05,0.11 0.02,0.03 0.04,0.06 0.07,0.1 0,0 0.01,0.01 0.01,0.02 0.01,0 0.01,0.01 0.02,0.01 0.01,0.01 0.02,0.02 0.03,0.02 0,0 0,-0.01 -0.01,-0.01 -0.02,-0.03 -0.04,-0.06 -0.06,-0.1 -0.02,-0.03 -0.04,-0.07 -0.05,-0.11l0 0 0 -0.66 0.02 0 0.05 0c0.01,0 0.02,0.01 0.04,0.01 0.01,0 0.02,0 0.04,0l0.01 0 0 0c0.02,0 0.03,0.01 0.04,0.02 0,-0.01 -0.01,-0.01 -0.01,-0.01zm0.43 -1.16c-0.11,-0.07 -0.27,-0.09 -0.43,-0.09l-0.25 0 0 0.84 0.06 0 0 -0.8 0.25 0c0.16,0 0.31,0.03 0.43,0.1 -0.02,-0.02 -0.04,-0.03 -0.06,-0.05zm-0.39 2.19c0,0 0,0 0,-0.01 0,0 -0.01,0 -0.01,0 -0.01,0 -0.02,0 -0.03,-0.01 0,0 0,0 0,0.01 0,0 0,0.01 0,0.01 0,0 0,0.01 0,0.01 0,0 0,0 0,0 -0.01,0.01 -0.01,0.02 -0.02,0.02 -0.01,0.01 -0.03,0.01 -0.05,0.01l-0.98 0c-0.01,0 -0.01,0 -0.01,0 0,0.02 0,0.03 0.01,0.04 0.01,0 0.03,0.01 0.06,0.01l0.98 0c0.02,0 0.04,-0.01 0.05,-0.01 0.01,0 0.01,-0.01 0.02,-0.02 0,0 0,-0.01 0,-0.01 0,0 0,0 0,-0.01 0,0 0,0 0,-0.01 0,-0.01 0,-0.02 0,-0.02 -0.01,-0.01 -0.01,-0.01 -0.02,-0.01zm3.84 0c0,0 -0.01,-0.01 -0.02,-0.01 -0.01,0 -0.02,-0.01 -0.03,-0.02 0,0.01 0,0.01 0,0.02 0,0.01 0,0.02 0,0.02 0,0.01 -0.01,0.01 -0.01,0.02 0,0 -0.02,0.01 -0.03,0.01 0,0 -0.01,0 -0.01,0l-0.45 0 -0.46 0c0,0 -0.01,0 -0.01,0 0,0.02 0.01,0.03 0.02,0.04 0.01,0 0.02,0 0.05,0.01l0.46 -0.01 0.45 0c0,0 0.01,0 0.01,0 0.01,0 0.03,0 0.03,-0.01 0,0 0.01,-0.01 0.01,-0.01 0,-0.01 0,-0.01 0,-0.02 0,-0.02 0,-0.03 -0.01,-0.04zm-1.75 -0.01c-0.02,0 -0.02,-0.01 -0.04,-0.01 0,0 0.01,0 0.01,0.01 0,0.03 -0.01,0.04 -0.02,0.04 -0.01,0.01 -0.03,0.01 -0.05,0.01l-0.06 0 -1.54 0c0,0 0,0 -0.01,0 0,0.02 0.01,0.03 0.02,0.04 0.01,0 0.03,0 0.05,0.01l1.54 0 0.06 0c0.02,-0.01 0.04,-0.01 0.05,-0.01 0.01,-0.01 0.02,-0.02 0.02,-0.04 0,-0.02 0,-0.03 -0.01,-0.04 0,0 -0.01,-0.01 -0.02,-0.01zm1.05 -2.64c0,0 -0.01,0 -0.01,0 -0.04,0.01 -0.07,0.03 -0.09,0.06 -0.01,0.02 -0.02,0.05 -0.02,0.09 0,0.02 -0.01,0.03 -0.01,0.05 0,0.02 0,0.03 0,0.04 0,0.02 0,0.04 0,0.06 0.01,0.01 0.01,0.03 0.01,0.04l0.4 1.58c0,0.03 0.01,0.06 0.02,0.09 0.02,0.1 0.05,0.22 0.11,0.31 0.02,0.04 0.05,0.07 0.08,0.1 0.02,0.01 0.03,0.01 0.04,0.02 -0.02,-0.02 -0.04,-0.05 -0.06,-0.08 -0.06,-0.09 -0.09,-0.21 -0.11,-0.3 -0.01,-0.04 -0.02,-0.07 -0.02,-0.09l-0.4 -1.58c0,-0.02 -0.01,-0.03 -0.01,-0.05 0,-0.02 0,-0.03 0,-0.05 0,-0.01 0,-0.03 0,-0.05 0,-0.01 0,-0.03 0.01,-0.05 0,-0.03 0.01,-0.06 0.02,-0.09 0.02,-0.02 0.05,-0.04 0.09,-0.05 0,0 0.01,-0.01 0.01,-0.01 0,0 0.01,-0.01 0.01,-0.02 0,-0.02 -0.01,-0.03 -0.01,-0.03 -0.01,-0.01 -0.03,-0.01 -0.04,-0.01l-0.02 0c0,0.01 0,0.02 0,0.02zm-1.05 1.97l0.72 0 0 -0.03 -0.01 -0.02 -0.77 0 -0.01 0.02 -0.07 0.28c0,0.02 0,0.03 -0.01,0.05 0,0.01 0,0.03 0,0.05 -0.01,0.04 0,0.08 0.01,0.11 0.02,0.03 0.04,0.05 0.08,0.06 -0.01,0 -0.02,-0.01 -0.02,-0.01 -0.01,-0.03 -0.02,-0.08 -0.01,-0.12 0,-0.02 0,-0.03 0,-0.05 0,-0.01 0.01,-0.03 0.01,-0.04l0.07 -0.29 0.01 -0.01zm-1.26 -1.81c0.09,0.09 0.17,0.2 0.22,0.33 0.05,0.14 0.07,0.3 0.03,0.48 -0.01,0.09 -0.08,0.19 -0.15,0.27 -0.09,0.1 -0.14,0.16 -0.23,0.2 -0.02,0.01 -0.04,0.02 -0.06,0.02 -0.03,0.01 -0.05,0.02 -0.08,0.03l-0.05 0 0.02 0.02c0.1,0.13 0.18,0.27 0.26,0.42 0.06,0.09 0.28,0.49 0.46,0.59 -0.16,-0.14 -0.33,-0.46 -0.37,-0.55 -0.09,-0.14 -0.17,-0.29 -0.27,-0.41l-0.01 -0.02 0.02 -0.01c0.03,-0.01 0.05,-0.01 0.08,-0.02 0.02,-0.01 0.04,-0.02 0.06,-0.03 0.09,-0.04 0.14,-0.09 0.23,-0.19 0.07,-0.09 0.14,-0.19 0.15,-0.28 0.04,-0.18 0.02,-0.34 -0.03,-0.47 -0.05,-0.14 -0.13,-0.25 -0.22,-0.34 -0.04,-0.03 -0.08,-0.06 -0.12,-0.09 0.02,0.02 0.04,0.03 0.06,0.05zm1.58 0.21l-0.02 0.07 -0.26 1.04 0 0.02 0.07 0 0.24 -0.99 -0.02 -0.07 -0.01 -0.07zm4.15 2.3c-0.02,0 -0.03,-0.01 -0.04,-0.02 0,0 0,0 0,0.01 0,0.01 0,0.02 -0.01,0.02 -0.01,0.01 -0.02,0.01 -0.04,0.01l-0.82 0c-0.01,0 -0.01,-0.01 -0.02,-0.01 0.01,0.03 0.03,0.05 0.08,0.05l0.82 0c0.02,0 0.03,0 0.04,0 0,0 0.01,-0.01 0.01,-0.03 0,-0.01 0,-0.02 -0.01,-0.02 0,-0.01 0,-0.01 -0.01,-0.01zm0.07 -2.68c-0.01,0 -0.03,0 -0.05,-0.01 0,0.01 0.01,0.01 0.01,0.01 0,0.02 -0.01,0.03 -0.01,0.03 -0.01,0.01 -0.01,0.01 -0.02,0.01 -0.07,0.02 -0.13,0.08 -0.18,0.15 -0.05,0.08 -0.09,0.18 -0.09,0.25l0 0.15 0 0 0 1.52 0 0 0 0.11c0,0.06 0.03,0.14 0.07,0.2 0.03,0.05 0.07,0.08 0.1,0.1 -0.01,-0.02 -0.03,-0.03 -0.04,-0.05 -0.04,-0.07 -0.07,-0.14 -0.07,-0.2l0 -0.11 0 0 0 -1.53 0 0 0 -0.14c0,-0.08 0.04,-0.18 0.09,-0.26 0.05,-0.07 0.11,-0.13 0.17,-0.14 0.01,-0.01 0.02,-0.01 0.03,-0.01 0,-0.01 0,-0.02 0,-0.04 0,-0.02 0,-0.03 -0.01,-0.04zm-1.72 2.65c-0.01,0 -0.02,-0.01 -0.03,-0.02 0,0.01 0,0.01 0,0.02 0,0.03 -0.01,0.04 -0.02,0.04 -0.01,0.01 -0.03,0.01 -0.05,0.01l-0.87 0c-0.01,0 -0.01,0 -0.01,0 0,0.02 0,0.03 0.01,0.04 0.01,0 0.03,0 0.06,0.01l0.87 0c0.02,-0.01 0.04,-0.01 0.05,-0.01 0.01,-0.01 0.02,-0.02 0.02,-0.04 0,-0.02 0,-0.03 -0.01,-0.04 0,0 -0.01,-0.01 -0.02,-0.01zm-0.29 -1.81l-0.03 -0.06 0 1.38 0 0c0.02,0.07 0.05,0.16 0.1,0.23 0.03,0.04 0.07,0.07 0.11,0.09 -0.02,-0.01 -0.04,-0.03 -0.05,-0.05 -0.05,-0.07 -0.08,-0.16 -0.1,-0.23l0 0 0 -1.31 -0.03 -0.05zm1.21 0.97l0.03 0.06 0 -0.07 -0.92 -1.76c-0.01,-0.02 -0.02,-0.03 -0.04,-0.04 0,0 -0.01,0 -0.01,0l0.94 1.81zm1.9 0.43c-0.04,-0.04 -0.08,-0.08 -0.12,-0.12 -0.14,-0.2 -0.23,-0.45 -0.23,-0.71 0,-0.25 0.08,-0.51 0.23,-0.71 0.14,-0.17 0.33,-0.29 0.56,-0.29 0.01,-0.01 0.03,-0.01 0.04,-0.01 0.14,0 0.25,0.04 0.34,0.09 -0.1,-0.08 -0.22,-0.13 -0.4,-0.13 -0.01,0 -0.02,0 -0.03,0 -0.24,0.01 -0.43,0.12 -0.57,0.3 -0.15,0.19 -0.23,0.46 -0.23,0.71 0,0.26 0.09,0.51 0.23,0.7 0.06,0.07 0.12,0.12 0.18,0.17zm1.52 -0.44c-0.02,0.13 -0.05,0.25 -0.1,0.36 -0.06,0.13 -0.15,0.24 -0.25,0.34 -0.11,0.1 -0.23,0.17 -0.37,0.22 -0.15,0.05 -0.31,0.07 -0.49,0.07 -0.3,0 -0.57,-0.08 -0.8,-0.23 0.24,0.17 0.54,0.28 0.86,0.28 0.18,0 0.34,-0.03 0.49,-0.08 0.14,-0.05 0.26,-0.12 0.37,-0.22 0.1,-0.09 0.19,-0.21 0.25,-0.33 0.05,-0.13 0.09,-0.26 0.11,-0.41l-0.07 0zm-0.02 -1.8l0 0.07 0 0 0 0.01 0 0.96 -0.22 0c-0.02,0 -0.05,-0.01 -0.08,-0.02 0.01,0.01 0.02,0.03 0.04,0.04 0.03,0.02 0.07,0.02 0.1,0.02l0.22 0 0 -0.96 0 0 0 0 0 -0.07c0,-0.02 0,-0.04 0,-0.05 -0.01,0 -0.02,-0.01 -0.03,-0.01l-0.01 0c-0.01,0 -0.01,0.01 -0.02,0.01 0,0 0,0 0,0zm1.39 0.04l0 0 0 -0.01c0,0 0,-0.01 0,-0.01 0,0 0,-0.01 -0.01,-0.01 0,0 0,0 0,-0.01 0,0 -0.01,0 -0.01,0 0,0 0,0 -0.01,0 0,0 0,0 -0.01,0l0 -0.01c0,0 -0.01,0 -0.02,0l0 0 0 0.01 0 0c0,0.01 0,0.02 0,0.03 0,0 -0.01,0 -0.01,0.01 0,0 -0.01,0 -0.02,0l0 0c0,0 -0.01,0 -0.01,0.01 0,0 -0.01,0 -0.01,0 -0.01,0 -0.02,0 -0.02,0.01 -0.01,0 -0.02,0 -0.02,0.01l-0.01 0 0 0 0 0 0 0 -0.01 0.01 0 0 0 0 -0.01 0.01 0 0c-0.01,0.01 -0.02,0.01 -0.03,0.02l0 0 0 0.01c-0.05,0.06 -0.09,0.11 -0.11,0.18 -0.02,0.07 -0.02,0.14 -0.02,0.23l0 1.47c0,0.09 0,0.17 0.03,0.24 0.02,0.06 0.05,0.12 0.1,0.18 0.01,0.01 0.01,0.01 0.02,0.02 0,0 0.01,0.01 0.02,0.01 0,0.01 0.01,0.01 0.02,0.02 -0.05,-0.06 -0.08,-0.12 -0.1,-0.19 -0.03,-0.07 -0.03,-0.14 -0.03,-0.23l0 -1.47c0,-0.09 0,-0.17 0.02,-0.23 0.02,-0.07 0.06,-0.13 0.11,-0.19l0 0 0 0c0.01,-0.01 0.02,-0.02 0.03,-0.03l0 0 0 0 0 0 0.01 -0.01 0.01 0 0 0 0 0 0 -0.01 0.01 0c0,0 0.01,0 0.02,-0.01 0,0 0.01,0 0.02,-0.01 0,0 0.01,0 0.01,0 0,0 0.01,0 0.01,0l0 0c0.01,-0.01 0.02,-0.01 0.02,-0.01l0 0c0,0 0.01,-0.01 0.01,-0.01 0,0 0,-0.01 0,-0.03l0 0 0 0 0 0 0 0zm-0.03 2.61c-0.01,0 -0.02,0 -0.03,-0.01 0,0.01 0,0.01 0,0.01 0,0.02 0,0.04 -0.01,0.04 -0.02,0.01 -0.04,0.01 -0.06,0.01l-1.01 0c0,0 0,0 -0.01,0 0,0.02 0.01,0.03 0.01,0.04 0.02,0 0.04,0 0.06,0l1.01 0c0.02,0 0.04,0 0.06,0 0.01,-0.01 0.01,-0.02 0.01,-0.04 0,-0.02 0,-0.03 -0.01,-0.04 0,0 -0.01,-0.01 -0.02,-0.01zm2.44 -0.79c-0.02,-0.07 -0.05,-0.13 -0.08,-0.19 -0.09,-0.13 -0.16,-0.2 -0.25,-0.26 0.06,0.05 0.12,0.12 0.19,0.22 0.04,0.05 0.06,0.11 0.08,0.18 0.01,0.07 0.02,0.14 0.02,0.21l0 0c0,0.19 -0.06,0.36 -0.17,0.49 -0.11,0.14 -0.28,0.25 -0.47,0.32 -0.13,0.04 -0.25,0.05 -0.37,0.05 -0.11,0 -0.22,-0.01 -0.33,-0.04 -0.09,-0.03 -0.18,-0.07 -0.26,-0.13 0.1,0.08 0.2,0.14 0.32,0.17 0.11,0.03 0.22,0.05 0.33,0.05 0.12,0 0.24,-0.02 0.37,-0.06 0.19,-0.06 0.36,-0.17 0.47,-0.31 0.11,-0.14 0.17,-0.31 0.17,-0.49l0 0c0,-0.08 -0.01,-0.15 -0.02,-0.21zm-1.65 -1.44l0 0c0,0.06 0.01,0.11 0.03,0.16 0.02,0.06 0.05,0.11 0.09,0.16l0 0 0 0c0.04,0.05 0.1,0.09 0.16,0.13 -0.04,-0.03 -0.07,-0.05 -0.1,-0.08l0 0 0 0c-0.04,-0.05 -0.07,-0.11 -0.09,-0.16 -0.02,-0.05 -0.03,-0.11 -0.03,-0.16l0 -0.01c0.01,-0.09 0.06,-0.16 0.13,-0.21 0.08,-0.05 0.19,-0.07 0.29,-0.07 0.01,0 0.01,0 0.02,0 0.03,0 0.06,0.01 0.09,0.02 0.03,0 0.05,0.02 0.08,0.03 -0.02,-0.02 -0.03,-0.03 -0.05,-0.04l0 0 0 0c-0.03,-0.02 -0.06,-0.03 -0.09,-0.04 -0.03,-0.01 -0.06,-0.01 -0.09,-0.01 -0.01,-0.01 -0.01,-0.01 -0.02,-0.01 -0.1,0 -0.21,0.03 -0.29,0.08 -0.07,0.05 -0.12,0.12 -0.13,0.21zm0.18 2c0.02,0.01 0.03,0.02 0.05,0.03 -0.13,-0.1 -0.23,-0.26 -0.27,-0.41 0,-0.01 0,-0.02 0,-0.02 -0.01,-0.04 -0.02,-0.07 -0.04,-0.11 -0.01,-0.04 -0.03,-0.07 -0.04,-0.11 -0.02,-0.03 -0.04,-0.05 -0.07,-0.07 -0.01,0 -0.01,0 -0.02,-0.01 0.01,0.02 0.02,0.02 0.03,0.04 0.01,0.03 0.03,0.07 0.04,0.11 0.02,0.03 0.03,0.07 0.04,0.1 0,0.01 0,0.02 0,0.02 0.05,0.16 0.15,0.32 0.28,0.43zm1.26 -2.41l0 0.25 0 0 0 0.75 -0.23 0c-0.03,0 -0.06,-0.01 -0.09,-0.02 0.01,0.01 0.02,0.03 0.04,0.04 0.03,0.01 0.07,0.02 0.11,0.02l0.23 0 0 -0.75 0 0 0 -0.25c0,-0.01 0,-0.03 0,-0.03 -0.01,-0.01 -0.02,-0.01 -0.03,-0.01l-0.01 0c-0.01,0 -0.01,0 -0.02,0l0 0zm3 1.79c-0.02,0.13 -0.05,0.25 -0.11,0.36 -0.06,0.13 -0.14,0.24 -0.24,0.34 -0.11,0.1 -0.23,0.17 -0.38,0.22 -0.14,0.05 -0.3,0.07 -0.49,0.07 -0.29,0 -0.56,-0.08 -0.79,-0.23 0.24,0.17 0.53,0.28 0.85,0.28 0.19,0 0.35,-0.03 0.49,-0.08 0.15,-0.05 0.27,-0.12 0.38,-0.22 0.1,-0.09 0.18,-0.21 0.24,-0.33 0.06,-0.13 0.1,-0.26 0.12,-0.41l-0.07 0zm-1.52 0.44c-0.04,-0.04 -0.08,-0.08 -0.12,-0.12 -0.15,-0.2 -0.24,-0.45 -0.24,-0.71 0,-0.25 0.09,-0.51 0.24,-0.71 0.14,-0.17 0.33,-0.29 0.56,-0.29 0.01,-0.01 0.02,-0.01 0.03,-0.01 0.15,0 0.26,0.04 0.35,0.09 -0.1,-0.08 -0.22,-0.13 -0.41,-0.13 -0.01,0 -0.02,0 -0.03,0 -0.23,0.01 -0.42,0.12 -0.56,0.3 -0.15,0.19 -0.24,0.46 -0.24,0.71 0,0.26 0.09,0.51 0.24,0.7 0.05,0.07 0.11,0.12 0.18,0.17zm1.11 -2.02l0 0c-0.01,0 -0.01,0 -0.01,0l0.01 0zm0.39 -0.22l0 0.07 0 0 0 0.01 0 0.96 -0.22 0c-0.03,0 -0.05,-0.01 -0.08,-0.02 0.01,0.01 0.02,0.03 0.03,0.04 0.04,0.02 0.07,0.02 0.11,0.02l0.22 0 0 -0.96 0 0 0 0 0 -0.07c0,-0.02 0,-0.04 -0.01,-0.05 0,0 -0.01,-0.01 -0.03,-0.01l0 0c-0.01,0 -0.02,0.01 -0.02,0.01l0 0zm1.13 0.38l-0.02 0.07 -0.26 1.04 0 0.02 0.07 0 0.24 -0.99 -0.02 -0.07 -0.01 -0.07zm-0.32 2.27c-0.02,0 -0.03,-0.01 -0.04,-0.01 0,0 0.01,0 0.01,0.01 0,0.03 -0.01,0.04 -0.02,0.04 -0.01,0.01 -0.03,0.01 -0.05,0.01l-0.72 0 -0.01 0c0.01,0.02 0.01,0.03 0.02,0.03 0,0.01 0.02,0.01 0.03,0.01l0.01 0 0 0 0 0 0.01 0.01 0.72 0c0.02,-0.01 0.04,-0.01 0.05,-0.01 0.01,-0.01 0.02,-0.02 0.02,-0.04 0,-0.02 -0.01,-0.03 -0.01,-0.04 -0.01,0 -0.01,-0.01 -0.02,-0.01zm1.83 0.26c-0.01,-0.01 -0.02,-0.01 -0.03,-0.02 0,0 -0.01,-0.01 -0.01,-0.01 0,0 0.01,0.01 0.01,0.02 0,0 0,0.01 -0.01,0.01 0,0 0,0.01 0,0.01 -0.01,0 -0.01,0 -0.02,0 -0.02,0 -0.03,0 -0.04,-0.01l-0.02 0 0 0c-0.14,-0.05 -0.27,-0.09 -0.4,-0.12 -0.13,-0.03 -0.26,-0.05 -0.43,-0.07l0 0c-0.01,0 -0.01,0 -0.01,0 -0.01,0 -0.01,-0.01 -0.02,-0.01 -0.01,0 -0.03,0 -0.04,0 -0.02,0 -0.03,0 -0.05,0 -0.01,-0.01 -0.02,-0.01 -0.03,-0.01 -0.01,0 -0.01,0 -0.01,0l0 0.01c0,0.03 0.03,0.03 0.07,0.04 0.01,0 0.02,0 0.03,0 0.02,0 0.03,0 0.05,0 0.01,0.01 0.03,0.01 0.04,0.01 0.01,0 0.01,0 0.02,0l0.01 0 0 0c0.17,0.03 0.3,0.05 0.43,0.08 0.13,0.02 0.25,0.06 0.4,0.11l0 0 0.01 0.01c0.02,0 0.03,0.01 0.05,0.01 0,0 0.01,0 0.02,-0.01 0,0 0,0 0.01,0 0,-0.01 0,-0.01 0,-0.02 0,-0.02 -0.02,-0.03 -0.03,-0.03zm-1.83 -0.93l0.72 0 -0.01 -0.03 0 -0.02 -0.77 0 -0.01 0.02 -0.06 0.28c0,0.02 -0.01,0.03 -0.01,0.05 0,0.01 0,0.03 -0.01,0.05 0,0.04 0.01,0.08 0.02,0.12 0.02,0.02 0.04,0.04 0.07,0.06 0,-0.01 -0.01,-0.01 -0.01,-0.02 -0.02,-0.03 -0.02,-0.07 -0.02,-0.12 0,-0.01 0.01,-0.03 0.01,-0.05 0,-0.01 0.01,-0.03 0.01,-0.04l0.06 -0.29 0.01 -0.01z"/>
   <path class="fil2" d="M24.56 9.68l-0.54 0 0 -0.02 0.26 -1.05 0.02 -0.07 0.01 0.07 0.27 1.05 0.01 0.02 -0.03 0zm-8.56 -3.4l-0.5 0 0 -0.02 0.24 -0.96 0.01 -0.06 0.02 0.06 0.25 0.96 0 0.02 -0.02 0zm0.41 -1.43l-1.13 0c-0.01,0 -0.01,0 -0.02,0 0,0.01 0,0.01 0,0.03 0,0.01 0,0.02 0,0.02 0,0 0.01,0 0.01,0.01 0.01,0 0.02,0 0.03,0.01 0.02,0 0.03,0.01 0.04,0.02 0.07,0.06 0.05,0.13 0.03,0.21l0 0.01 -0.41 1.64 0 0c0,0.02 -0.01,0.04 -0.01,0.07 -0.03,0.08 -0.05,0.19 -0.1,0.27 -0.03,0.04 -0.05,0.07 -0.08,0.1 -0.03,0.02 -0.06,0.04 -0.09,0.04 -0.01,0 -0.01,0.01 -0.02,0.01 0,0.01 -0.01,0.02 -0.01,0.03 0,0.02 0.01,0.03 0.02,0.04 0,0 0.02,0.01 0.03,0.01l0 0 0 0 0.01 0 0.01 0 0.65 0c0.02,0 0.04,0 0.05,-0.01 0.01,-0.01 0.01,-0.02 0.01,-0.04 0,-0.01 0,-0.02 0,-0.03 -0.01,0 -0.01,-0.01 -0.02,-0.01 -0.05,-0.01 -0.07,-0.03 -0.09,-0.06 -0.02,-0.03 -0.02,-0.07 -0.02,-0.11 0,-0.02 0.01,-0.03 0.01,-0.05 0,-0.01 0.01,-0.02 0.01,-0.04l0.08 -0.34 0.01 -0.02 0.71 0 0 0.02 0.07 0.26c0,0.02 0,0.03 0.01,0.05 0,0.01 0,0.03 0.01,0.04 0,0.01 0,0.02 0,0.03 0.01,0.07 0.03,0.14 -0.04,0.19l0 0.01 0 0c-0.01,0 -0.02,0.01 -0.04,0.01 0,0.01 -0.02,0.01 -0.03,0.01 -0.01,0 -0.01,0.01 -0.02,0.01 0,0.01 0,0.02 0,0.03 0,0.02 0,0.03 0.01,0.04 0.01,0.01 0.03,0.01 0.05,0.01l0.82 0 0.01 0 0 0 0.01 0 0 0 0 0c0,0 0.01,-0.01 0.01,-0.01 0,0 0.01,0 0.01,0l0 0 0 0c0.01,0 0.01,0 0.01,0 0,0 0,0 0,0l0 -0.01 0 0c0,0 0.01,0 0.01,-0.01 0,0 0,-0.01 0,-0.02 0,-0.01 0,-0.02 -0.01,-0.03 0,0 -0.01,-0.01 -0.02,-0.01 -0.03,0 -0.06,-0.02 -0.08,-0.04 -0.03,-0.03 -0.06,-0.06 -0.08,-0.1 -0.05,-0.08 -0.08,-0.19 -0.1,-0.27 -0.01,-0.04 -0.02,-0.07 -0.02,-0.09l0 0 -0.39 -1.56c-0.01,-0.01 -0.01,-0.03 -0.01,-0.04 0,-0.02 0,-0.04 0,-0.06 0,0 0,-0.02 0,-0.04 0,-0.01 0,-0.02 0,-0.04 0.01,-0.03 0.01,-0.06 0.03,-0.08 0.01,-0.03 0.04,-0.04 0.07,-0.05 0.01,-0.01 0.01,-0.01 0.02,-0.01 0,0 0,-0.01 0,-0.02 0,-0.02 0,-0.02 -0.01,-0.03 0,0 -0.01,0 -0.01,0zm-2.39 2.52l0 0 0.51 0 0.09 -0.49c0,-0.02 0,-0.03 -0.01,-0.04 0,-0.01 -0.01,-0.01 -0.02,-0.01l-0.01 0c-0.01,0 -0.02,0 -0.02,0.01 0,0 -0.01,0 -0.01,0.01 -0.01,0.03 -0.03,0.06 -0.05,0.09 -0.03,0.02 -0.06,0.03 -0.1,0.03l-0.72 0 0 0 0 0c-0.02,0 -0.03,-0.01 -0.04,-0.01 -0.02,-0.01 -0.02,-0.02 -0.03,-0.04l0 0 0 0c0,-0.01 0,-0.03 0,-0.04l0 -0.04 0 -1.45c0,-0.09 0.01,-0.15 0.02,-0.22 0.03,-0.06 0.06,-0.11 0.1,-0.17l0.01 0 0 0 0 0c0.02,-0.02 0.03,-0.03 0.05,-0.04 0.02,-0.01 0.03,-0.02 0.05,-0.02 0.01,0 0.02,-0.01 0.02,-0.01 0.01,0 0.01,-0.01 0.01,-0.03 0,-0.02 0,-0.03 -0.01,-0.04 -0.01,0 -0.03,0 -0.06,0l0 0 -0.91 0 0 0c-0.02,0 -0.04,0 -0.05,0 -0.01,0.01 -0.02,0.02 -0.02,0.04 0,0.02 0,0.03 0.01,0.03 0,0 0.01,0.01 0.02,0.01 0.02,0 0.04,0.01 0.05,0.02 0.02,0.01 0.04,0.02 0.05,0.04l0.01 0 0 0 0 0 0 0c0.05,0.06 0.08,0.11 0.1,0.17 0.02,0.07 0.02,0.13 0.02,0.22l0 1.44c0,0.08 0,0.15 -0.02,0.22 -0.02,0.06 -0.05,0.11 -0.1,0.17l0 0 0 0 -0.01 0c-0.01,0.02 -0.03,0.03 -0.05,0.04 -0.01,0.01 -0.03,0.02 -0.05,0.02 -0.01,0 -0.02,0 -0.02,0.01 -0.01,0 -0.01,0.01 -0.01,0.03 0,0.02 0.01,0.03 0.02,0.04 0.01,0 0.03,0 0.05,0l0.57 0 0 0.01 0.56 0zm-9.04 1.19l0 -0.01 0.92 0c0.03,0 0.06,0 0.09,0.02 0.02,0.02 0.04,0.04 0.06,0.06 0.01,0.01 0.01,0.02 0.02,0.03 0,0.01 0.01,0.02 0.03,0.02 0,0 0.01,0 0.01,0 0,0 0.01,0 0.01,-0.01 0.01,-0.01 0.01,-0.02 0.01,-0.03l-0.06 -0.53 -1.87 0 0 0c-0.02,0 -0.04,0 -0.04,0 -0.01,0.01 -0.01,0.02 -0.01,0.03 0,0.02 0,0.02 0,0.03 0,0 0.01,0 0.02,0 0.05,0.02 0.1,0.06 0.13,0.12 0.04,0.06 0.07,0.14 0.07,0.2l0 1.89c0,0.04 0,0.07 -0.01,0.11 -0.01,0.05 -0.01,0.09 -0.02,0.14 -0.02,0.05 -0.03,0.1 -0.06,0.16 -0.03,0.06 -0.06,0.12 -0.1,0.18 -0.01,0.02 -0.02,0.03 -0.03,0.04 -0.01,0.01 -0.02,0.02 -0.03,0.03l0 0c-0.01,0.01 -0.02,0.01 -0.03,0.02 -0.01,0 -0.02,0.01 -0.03,0.03l0 0.01c0,0 0,0 0.01,0.01 0,0 0,0 0,0.01 0.01,0 0.02,0 0.02,0 0.02,0 0.03,-0.01 0.05,-0.01l0.01 -0.01 0 0c0.15,-0.05 0.27,-0.08 0.4,-0.11 0.13,-0.03 0.26,-0.05 0.43,-0.08 0.01,0 0.01,0 0.01,0 0.01,0 0.01,0 0.02,0 0.01,0 0.03,0 0.04,-0.01 0.02,0 0.03,0 0.05,0 0.01,0 0.03,0 0.03,0 0.04,-0.01 0.07,-0.01 0.07,-0.04 0,-0.01 0,-0.02 -0.01,-0.02 0,-0.01 0,-0.01 -0.01,-0.02 -0.01,-0.01 -0.02,-0.01 -0.03,-0.02 -0.01,0 -0.02,-0.01 -0.04,-0.02 -0.05,-0.03 -0.08,-0.08 -0.1,-0.15 -0.01,-0.06 -0.02,-0.14 -0.03,-0.22l0 0 0 -0.82 0.02 0 0.19 0 0.18 0 0 0 0.21 0c0.03,0 0.06,0.01 0.09,0.03 0.02,0.03 0.05,0.06 0.05,0.09 0.01,0.01 0.01,0.01 0.01,0.01 0,0.01 0.01,0.01 0.02,0.01l0 0c0.02,0 0.03,0 0.03,-0.01 0.01,-0.01 0.01,-0.02 0.01,-0.04l0 -0.58c0,-0.01 0,-0.03 -0.01,-0.04 0,0 -0.01,-0.01 -0.03,-0.01l0 0c-0.01,0 -0.02,0 -0.02,0.01 0,0 0,0.01 -0.01,0.01 0,0.03 -0.03,0.06 -0.05,0.09 -0.03,0.02 -0.06,0.03 -0.09,0.03l-0.21 0 0 0.01 -0.18 0 -0.19 0 -0.02 0 0 -0.64zm5.07 1.12l-0.55 0 0.01 -0.02 0.25 -1.05 0.02 -0.07 0.01 0.07 0.27 1.05 0.01 0.02 -0.02 0zm-2.45 -0.31l0 0c-0.04,0 -0.08,0.01 -0.13,0.01 -0.07,0 -0.15,0.01 -0.2,0.01l-0.19 0 0 -0.85 0.25 0c0.16,0 0.32,0.03 0.43,0.1 0.1,0.06 0.16,0.15 0.17,0.28 0.01,0.12 -0.02,0.22 -0.08,0.29 -0.06,0.08 -0.15,0.14 -0.25,0.16zm2.55 1.48c0.01,0.01 0.03,0.01 0.05,0.01l0.46 0 0.45 0c0,0 0.01,0 0.01,0 0.01,0 0.03,0 0.03,-0.01 0,0 0.01,-0.01 0.01,-0.01 0,-0.01 0,-0.02 0,-0.03 0,-0.02 0,-0.03 -0.01,-0.03 0,-0.01 -0.01,-0.01 -0.02,-0.01 -0.03,-0.01 -0.06,-0.03 -0.09,-0.05 -0.03,-0.03 -0.06,-0.06 -0.09,-0.1 -0.05,-0.09 -0.08,-0.21 -0.11,-0.31 -0.01,-0.03 -0.01,-0.06 -0.02,-0.09l-0.43 -1.71c0,-0.01 0,-0.02 -0.01,-0.04 0,-0.02 0,-0.04 0,-0.06 0,-0.01 0,-0.02 0,-0.04 0,-0.02 0.01,-0.03 0.01,-0.05 0,-0.04 0.01,-0.07 0.03,-0.09 0.01,-0.03 0.04,-0.04 0.08,-0.05 0,-0.01 0.01,-0.01 0.01,-0.01 0.01,-0.01 0.01,-0.01 0.01,-0.03 0,-0.01 -0.01,-0.02 -0.01,-0.02 -0.01,-0.01 -0.03,-0.01 -0.04,-0.01l-1.16 0 -0.03 0c-0.02,0 -0.03,0 -0.04,0.01 0,0 -0.01,0.01 -0.01,0.02 0,0.02 0,0.02 0.01,0.03 0,0 0,0 0.01,0.01 0.01,0 0.03,0 0.04,0.01 0.01,0 0.02,0.01 0.03,0.02 0.08,0.06 0.06,0.14 0.04,0.23l0 0.01c0,0 -0.45,1.79 -0.45,1.79 0,0.02 -0.01,0.05 -0.02,0.07 -0.02,0.1 -0.05,0.22 -0.11,0.31 -0.02,0.03 -0.04,0.06 -0.06,0.08 -0.03,0.03 -0.06,0.04 -0.09,0.04 -0.19,0 -0.44,-0.5 -0.5,-0.61 -0.09,-0.15 -0.17,-0.29 -0.27,-0.42l-0.01 -0.02 0.02 -0.01c0.03,0 0.05,-0.01 0.08,-0.02 0.02,0 0.04,-0.01 0.06,-0.02 0.09,-0.04 0.2,-0.12 0.29,-0.22 0.07,-0.09 0.14,-0.19 0.16,-0.28 0.03,-0.18 0.01,-0.34 -0.03,-0.47 -0.06,-0.14 -0.14,-0.25 -0.23,-0.34 -0.07,-0.07 -0.16,-0.12 -0.26,-0.16 -0.12,-0.04 -0.25,-0.05 -0.39,-0.06l-0.44 0 -0.35 0 -0.29 0 -0.1 0 -0.05 0c-0.02,0 -0.03,0 -0.04,0.01 -0.01,0 -0.01,0.01 -0.01,0.02 0,0.02 0,0.02 0.01,0.03 0,0 0,0 0.01,0.01 0.05,0.01 0.1,0.05 0.13,0.1 0.04,0.06 0.07,0.13 0.07,0.19l0 1.8c0,0.01 0,0.03 0,0.05 0,0.02 0,0.05 -0.01,0.07 0,0.06 -0.01,0.11 -0.03,0.16 -0.02,0.05 -0.05,0.1 -0.09,0.14 -0.02,0.02 -0.04,0.04 -0.06,0.05 -0.02,0.01 -0.04,0.02 -0.06,0.03 -0.01,0 -0.02,0 -0.02,0.01 -0.01,0 -0.01,0.01 -0.01,0.03 0,0.03 0,0.04 0.01,0.04 0.02,0.01 0.04,0.01 0.06,0.01l0.98 0c0.02,0 0.04,0 0.05,0 0.01,-0.01 0.02,-0.01 0.02,-0.03 0,0 0,0 0,0 0,0 0,-0.01 0,-0.01 0,0 0,-0.01 0,-0.01 0,-0.01 0,-0.02 0,-0.03 0,0 -0.01,-0.01 -0.01,-0.01 -0.01,0 -0.01,0 -0.01,0 0,0 -0.01,0 -0.01,0 -0.01,0 -0.02,-0.01 -0.03,-0.01 -0.02,-0.01 -0.03,-0.01 -0.04,-0.02 -0.01,-0.01 -0.01,-0.01 -0.02,-0.02 0,-0.01 -0.01,-0.01 -0.01,-0.02 -0.03,-0.03 -0.05,-0.06 -0.07,-0.1 -0.02,-0.03 -0.04,-0.07 -0.05,-0.11l0 0 0 -0.76 0.02 0 0.05 0c0.01,0 0.02,0 0.04,0l0.04 0 0.01 0 0 0c0.02,0.01 0.04,0.02 0.06,0.03 0.01,0.01 0.02,0.02 0.03,0.03 0.08,0.08 0.25,0.33 0.35,0.56 0.08,0.15 0.12,0.3 0.1,0.38 -0.01,0 -0.01,0.01 -0.01,0.01 0,0 0,0.01 0,0.01l-0.01 0 0 0.01c-0.01,0 -0.01,0 -0.02,0 0,0.01 -0.01,0.01 -0.02,0.01 -0.01,0 -0.02,0 -0.02,0.01 0,0 -0.01,0.01 -0.01,0.03 0,0.03 0.01,0.04 0.02,0.04 0.01,0.01 0.03,0.01 0.05,0.01l1.54 0 0.06 0c0.02,0 0.04,0 0.05,-0.01 0.01,0 0.02,-0.01 0.02,-0.04 0,-0.02 0,-0.03 -0.01,-0.03 0,-0.01 -0.01,-0.01 -0.02,-0.01 -0.05,-0.01 -0.08,-0.04 -0.1,-0.07 -0.01,-0.03 -0.02,-0.07 -0.01,-0.12 0,-0.02 0,-0.03 0,-0.05 0.01,-0.01 0.01,-0.03 0.01,-0.04l0.09 -0.38 0.01 -0.01 0.77 0 0.01 0.01 0.07 0.29c0,0.02 0.01,0.03 0.01,0.05 0,0.02 0.01,0.03 0.01,0.04 0,0.01 0,0.02 0,0.03 0.02,0.08 0.03,0.16 -0.04,0.22 0,0 0,0 0,0 -0.01,0.01 -0.03,0.01 -0.04,0.02 -0.01,0 -0.02,0.01 -0.03,0.01 -0.01,0 -0.02,0 -0.02,0.01 -0.01,0 -0.01,0.01 -0.01,0.03 0,0.03 0.01,0.04 0.02,0.04zm3.73 0.01c0.01,-0.01 0.01,-0.01 0.01,-0.03 0,-0.02 0,-0.02 -0.01,-0.03 0,0 0,0 -0.01,0 -0.05,-0.02 -0.1,-0.06 -0.14,-0.12 -0.04,-0.06 -0.06,-0.14 -0.06,-0.2l0 -0.11 -0.01 0 0 -1.62 0.01 0 0 -0.14c0,-0.08 0.03,-0.18 0.08,-0.26 0.05,-0.07 0.11,-0.13 0.18,-0.15 0.01,0 0.01,0 0.02,-0.01 0,0 0.01,-0.01 0.01,-0.03 0,-0.02 -0.01,-0.04 -0.02,-0.04 -0.01,-0.01 -0.03,-0.01 -0.05,-0.01l-0.88 0c-0.02,0 -0.04,0 -0.05,0.01 -0.01,0 -0.02,0.02 -0.02,0.04 0,0.02 0.01,0.03 0.01,0.03 0,0.01 0.01,0.01 0.02,0.01 0.06,0.02 0.12,0.06 0.16,0.12 0.05,0.07 0.08,0.16 0.1,0.23l0 0 0 1.48 -0.03 -0.06 -0.94 -1.82c-0.01,-0.01 -0.03,-0.02 -0.04,-0.03 -0.02,-0.01 -0.04,-0.01 -0.07,-0.01l-0.79 0 0 0 -0.01 0c-0.01,0 -0.03,0 -0.03,0.01 -0.01,0 -0.01,0.01 -0.01,0.02 0,0.02 0,0.03 0,0.03 0,0 0.01,0 0.02,0.01 0.05,0.01 0.09,0.05 0.13,0.1 0.04,0.06 0.06,0.13 0.07,0.19l0 0 0 1.8c0,0.1 -0.01,0.17 -0.03,0.24 -0.03,0.07 -0.06,0.13 -0.12,0.19l0 0 0 0 0 0 0 0.01c-0.02,0.01 -0.04,0.02 -0.06,0.04 -0.01,0.01 -0.03,0.01 -0.05,0.02l0 0 0 0c-0.01,0 -0.01,0 -0.01,0 -0.01,0 -0.01,0 -0.01,0.01 -0.01,0 -0.01,0 -0.01,0.01 0,0 0,0.01 0,0.02 0,0.03 0,0.04 0.01,0.04 0.02,0.01 0.03,0.01 0.06,0.01l0.87 0c0.03,0 0.04,0 0.05,-0.01 0.01,0 0.02,-0.01 0.02,-0.04 0,-0.02 0,-0.03 -0.01,-0.03 0,-0.01 -0.01,-0.01 -0.02,-0.01 -0.06,-0.02 -0.11,-0.06 -0.16,-0.12 -0.05,-0.07 -0.08,-0.16 -0.1,-0.23l0 0 0 -1.48 0.04 0.06 0.91 1.76c0,0.01 0.01,0.02 0.01,0.03 0.03,0.04 0.04,0.07 0.1,0.07l0.82 0c0.02,0 0.03,0 0.04,0zm0.07 -1.35l0 0 0 0.02c0.01,0.4 0.17,0.75 0.43,1.01 0.27,0.26 0.63,0.41 1.03,0.41 0.18,0 0.34,-0.02 0.49,-0.07 0.14,-0.05 0.27,-0.12 0.37,-0.22 0.1,-0.1 0.19,-0.21 0.25,-0.34 0.06,-0.12 0.09,-0.26 0.11,-0.41l-0.38 0c-0.01,0.1 -0.04,0.19 -0.08,0.27 -0.04,0.08 -0.1,0.15 -0.18,0.21 -0.08,0.07 -0.17,0.11 -0.26,0.14 -0.06,0.02 -0.13,0.03 -0.2,0.03 -0.01,0 -0.03,0 -0.04,0 -0.22,-0.02 -0.42,-0.14 -0.57,-0.33 -0.14,-0.19 -0.23,-0.44 -0.23,-0.7 0,-0.25 0.08,-0.52 0.23,-0.71 0.14,-0.17 0.33,-0.29 0.57,-0.3 0.01,0 0.02,0 0.03,0 0.2,0 0.34,0.06 0.44,0.16 0.11,0.11 0.18,0.25 0.25,0.42 0.02,0.03 0.04,0.06 0.07,0.07 0.03,0.02 0.07,0.03 0.1,0.03l0.22 0 0 -0.96 0 0 0 -0.01 0 -0.07c0,-0.02 0,-0.03 0,-0.04 -0.01,-0.01 -0.02,-0.01 -0.03,-0.01l0 0c-0.02,0 -0.03,0 -0.03,0.01 0,0 0,0 -0.01,0.01 0,0.05 -0.04,0.1 -0.08,0.14 -0.05,0.04 -0.12,0.08 -0.19,0.1l0 0c-0.01,0 -0.02,0.01 -0.02,0.01 -0.01,0 -0.01,0 -0.01,0l0 0 -0.01 0 -0.01 0 -0.01 0c-0.1,-0.1 -0.22,-0.17 -0.35,-0.21 -0.13,-0.05 -0.27,-0.07 -0.43,-0.07l0 0 -0.01 0 -0.02 0c-0.39,0 -0.74,0.16 -1.01,0.41 -0.26,0.26 -0.43,0.61 -0.43,1zm3.97 1.34c0.01,0 0.01,-0.01 0.01,-0.04 0,-0.02 0,-0.03 0,-0.03 -0.01,-0.01 -0.02,-0.01 -0.03,-0.01 -0.01,0 -0.03,-0.01 -0.04,-0.02 -0.02,0 -0.03,-0.01 -0.04,-0.02l0 0c-0.01,-0.01 -0.02,-0.01 -0.02,-0.01 -0.01,-0.01 -0.01,-0.01 -0.02,-0.02 -0.05,-0.06 -0.08,-0.12 -0.1,-0.19 -0.03,-0.06 -0.03,-0.14 -0.03,-0.23l0 -1.59c0,-0.09 0,-0.16 0.03,-0.23 0.02,-0.06 0.05,-0.12 0.1,-0.18l0 0 0 -0.01c0.01,-0.01 0.02,-0.01 0.03,-0.02l0.01 -0.01 0 0 0 0 0.01 -0.01 0 0 0 0 0 0 0.01 0c0,0 0.01,-0.01 0.02,-0.01 0,0 0.01,-0.01 0.02,-0.01 0,0 0.01,0 0.01,0 0,-0.01 0.01,-0.01 0.01,-0.01l0 0c0.01,0 0.02,0 0.02,0l0 0c0.01,0 0.01,-0.01 0.01,-0.01 0,-0.01 0,-0.02 0,-0.03l0 0 0 0 0 -0.01 0 0c0,0 0,-0.01 0,-0.01 0,-0.01 0,-0.01 0,-0.01 -0.01,-0.01 -0.01,-0.01 -0.01,-0.01 0,0 0,0 -0.01,0 0,0 0,0 0,-0.01 -0.01,0 -0.01,0 -0.02,0l0 0c-0.01,0 -0.03,0 -0.04,0 -0.01,0 -0.02,0 -0.02,0l-0.02 0 -0.9 0 -0.02 0 -0.02 0 -0.03 0 0 0 -0.01 0 0 0 0 0 0 0 0 0c-0.01,0 -0.02,0 -0.03,0.01 0,0 -0.01,0 -0.01,0.01l0 0c0,0 -0.01,0 -0.01,0.01 0,0.01 0,0.01 0,0.02l0 0 0 0c0,0.01 0,0.02 0,0.03 0.01,0 0.01,0 0.01,0.01 0.01,0 0.01,0 0.02,0l0 0 0 0c0.02,0.01 0.02,0.01 0.04,0.02 0.01,0 0.02,0.01 0.03,0.01 0.01,0.01 0.01,0.01 0.02,0.02l0 0 0 0 0.01 0 0 0 0 0c0,0 0.01,0.01 0.01,0.01 0.01,0.01 0.01,0.01 0.01,0.02l0.01 0 0 0c0.05,0.06 0.08,0.12 0.1,0.18 0.02,0.07 0.03,0.14 0.03,0.23l0 1.59c0,0.09 -0.01,0.17 -0.03,0.23 -0.02,0.07 -0.06,0.13 -0.11,0.19l0 0 0 0 0 0.01c-0.02,0.01 -0.04,0.03 -0.06,0.04 -0.02,0.01 -0.04,0.01 -0.06,0.02 -0.01,0 -0.02,0 -0.02,0.01 -0.01,0 -0.01,0.01 -0.01,0.03 0,0.03 0.01,0.04 0.02,0.04 0.01,0.01 0.03,0.01 0.06,0.01l1 0c0.02,0 0.05,0 0.06,-0.01zm0.24 -0.19l0 0.16c0,0.02 0,0.03 0,0.04 0.01,0 0.02,0.01 0.03,0.01l0.01 0c0.01,0 0.02,0 0.02,-0.01 0.01,0 0.01,0 0.01,-0.01 0.01,-0.04 0.04,-0.09 0.09,-0.13 0.04,-0.04 0.11,-0.07 0.18,-0.1l0.01 0 0.01 0.01c0.12,0.18 0.3,0.31 0.5,0.37 0.11,0.03 0.22,0.04 0.33,0.04 0.12,0 0.24,-0.01 0.37,-0.05 0.19,-0.06 0.36,-0.17 0.47,-0.32 0.11,-0.13 0.17,-0.3 0.17,-0.49l0 0c0,-0.07 -0.01,-0.14 -0.02,-0.21 -0.02,-0.06 -0.04,-0.12 -0.08,-0.18 -0.15,-0.23 -0.27,-0.29 -0.47,-0.39 -0.05,-0.01 -0.09,-0.04 -0.13,-0.06 -0.05,-0.02 -0.12,-0.05 -0.18,-0.08 -0.2,-0.08 -0.45,-0.19 -0.61,-0.36l0 0 0 0c-0.04,-0.04 -0.07,-0.1 -0.09,-0.16 -0.02,-0.05 -0.03,-0.1 -0.03,-0.16l0 0c0.01,-0.09 0.06,-0.16 0.14,-0.21 0.07,-0.05 0.18,-0.07 0.28,-0.07 0.01,0 0.01,0 0.02,0 0.04,0 0.07,0 0.1,0.01 0.02,0.01 0.05,0.02 0.08,0.04l0 0c0.09,0.06 0.16,0.14 0.22,0.22 0.05,0.09 0.09,0.18 0.11,0.29 0.01,0.03 0.02,0.07 0.04,0.1 0.01,0.04 0.03,0.08 0.04,0.11 0.02,0.03 0.04,0.06 0.07,0.07 0.03,0.02 0.08,0.03 0.11,0.03l0.24 0 0 -0.75 -0.01 0 0 -0.25c0,-0.02 0,-0.03 0,-0.04 -0.01,0 -0.02,-0.01 -0.03,-0.01l0 0c-0.02,0 -0.03,0 -0.03,0.01 -0.01,0 -0.01,0 -0.01,0.01 -0.01,0.05 -0.04,0.09 -0.08,0.13 -0.05,0.04 -0.11,0.07 -0.18,0.1l-0.02 0 0 -0.01c-0.01,-0.02 -0.02,-0.04 -0.03,-0.06 -0.01,-0.02 -0.02,-0.04 -0.03,-0.06l0 0c-0.04,-0.06 -0.1,-0.11 -0.17,-0.15 -0.07,-0.04 -0.15,-0.07 -0.23,-0.09 -0.07,-0.02 -0.14,-0.03 -0.22,-0.03 -0.02,0 -0.04,0 -0.05,0.01 -0.1,0 -0.2,0.02 -0.29,0.05 -0.2,0.07 -0.36,0.18 -0.48,0.32 -0.1,0.14 -0.16,0.3 -0.16,0.49 0,0.01 0,0.02 0,0.02 0,0.01 0,0.02 0,0.03l0 0c0.01,0.08 0.04,0.15 0.08,0.22 0.04,0.06 0.11,0.12 0.18,0.17 0.12,0.08 0.25,0.15 0.38,0.23 0.16,0.09 0.32,0.18 0.43,0.27 0.05,0.03 0.09,0.06 0.13,0.09 0.08,0.06 0.17,0.11 0.24,0.19 0.06,0.06 0.11,0.14 0.13,0.22 0.02,0.05 0.02,0.1 0.01,0.15 -0.02,0.05 -0.04,0.1 -0.09,0.15 -0.05,0.05 -0.13,0.09 -0.24,0.12 0,0 -0.01,0 -0.01,0 -0.04,0.02 -0.08,0.02 -0.12,0.02 -0.14,0 -0.26,-0.05 -0.37,-0.14 -0.13,-0.11 -0.23,-0.27 -0.28,-0.43 0,0 0,-0.01 0,-0.02 -0.01,-0.03 -0.02,-0.07 -0.04,-0.1 -0.01,-0.04 -0.03,-0.08 -0.04,-0.11 -0.02,-0.03 -0.04,-0.06 -0.07,-0.07 -0.03,-0.02 -0.07,-0.03 -0.11,-0.03l-0.23 0 0 0.75 0 0 0 0.09zm2.36 -1.15l0 0 0 0.02c0,0.4 0.17,0.75 0.43,1.01 0.26,0.26 0.63,0.41 1.03,0.41 0.18,0 0.34,-0.02 0.48,-0.07 0.15,-0.05 0.27,-0.12 0.38,-0.22 0.1,-0.1 0.19,-0.21 0.24,-0.34 0.06,-0.12 0.1,-0.26 0.12,-0.41l-0.38 0c-0.01,0.1 -0.04,0.19 -0.08,0.27 -0.04,0.08 -0.1,0.15 -0.18,0.21 -0.09,0.07 -0.17,0.11 -0.26,0.14 -0.07,0.02 -0.13,0.03 -0.2,0.03 -0.02,0 -0.03,0 -0.05,0 -0.22,-0.02 -0.41,-0.14 -0.56,-0.33 -0.15,-0.19 -0.24,-0.44 -0.24,-0.7 0,-0.25 0.09,-0.52 0.24,-0.71 0.14,-0.17 0.33,-0.29 0.56,-0.3 0.01,0 0.02,0 0.04,0 0.2,0 0.33,0.06 0.44,0.16 0.11,0.11 0.18,0.25 0.25,0.42 0.02,0.03 0.04,0.06 0.07,0.07 0.03,0.02 0.06,0.03 0.1,0.03l0.22 0 0 -0.96 0 0 0 -0.01 0 -0.07c0,-0.02 0,-0.03 -0.01,-0.04 0,-0.01 -0.01,-0.01 -0.03,-0.01l0 0c-0.01,0 -0.02,0 -0.02,0.01 -0.01,0 -0.01,0 -0.01,0.01 0,0.05 -0.04,0.1 -0.09,0.14 -0.05,0.04 -0.11,0.08 -0.19,0.1l0 0c0,0 -0.01,0.01 -0.01,0.01 -0.01,0 -0.01,0 -0.02,0l0 0 -0.01 0 0 0 -0.01 0c-0.1,-0.1 -0.22,-0.17 -0.35,-0.21 -0.13,-0.05 -0.27,-0.07 -0.43,-0.07l0 0 -0.01 0 -0.02 0c-0.39,0 -0.75,0.16 -1.01,0.41 -0.26,0.26 -0.43,0.61 -0.43,1zm4.19 1.35c0.01,0.01 0.02,0.01 0.03,0.01 0.02,0 0.03,0 0.05,0 0.01,0 0.03,0 0.04,0.01 0.01,0 0.02,0 0.02,0 0,0 0.01,0 0.01,0 0.17,0.02 0.3,0.05 0.43,0.07 0.13,0.03 0.26,0.07 0.41,0.12l0 0 0.01 0c0.01,0.01 0.03,0.01 0.04,0.01 0.01,0 0.01,0 0.02,0 0,0 0,0 0.01,-0.01 0,0 0,-0.01 0,-0.01 0,-0.02 -0.02,-0.03 -0.03,-0.04 -0.01,0 -0.02,-0.01 -0.03,-0.01 -0.01,-0.01 -0.02,-0.02 -0.03,-0.03 -0.01,-0.01 -0.02,-0.03 -0.03,-0.04 -0.06,-0.09 -0.12,-0.21 -0.17,-0.33 -0.07,-0.15 -0.13,-0.31 -0.16,-0.42l0 0 -0.42 -1.68c0,-0.01 0,-0.02 -0.01,-0.04 0,-0.02 0,-0.04 0,-0.06 0,-0.01 0,-0.02 0,-0.04 0,-0.02 0,-0.03 0.01,-0.05 0,-0.04 0.01,-0.07 0.03,-0.09 0.01,-0.03 0.04,-0.04 0.08,-0.05 0,-0.01 0.01,-0.01 0.01,-0.01 0.01,-0.01 0.01,-0.01 0.01,-0.03 0,-0.01 -0.01,-0.02 -0.01,-0.02 -0.01,-0.01 -0.03,-0.01 -0.04,-0.01l-1.19 0c-0.02,0 -0.03,0 -0.04,0.01 -0.01,0 -0.01,0.01 -0.01,0.02 0,0.02 0,0.02 0.01,0.03 0,0 0,0 0.01,0.01 0.01,0 0.02,0 0.03,0.01 0.02,0 0.03,0.01 0.04,0.02 0.08,0.06 0.06,0.14 0.04,0.23l0 0.01 -0.45 1.79 0 0c-0.01,0.02 -0.01,0.05 -0.02,0.07 -0.02,0.1 -0.05,0.22 -0.11,0.31 -0.02,0.04 -0.05,0.07 -0.08,0.1 -0.03,0.02 -0.06,0.04 -0.1,0.05 -0.01,0 -0.01,0 -0.02,0.01 0,0 0,0.01 0,0.03 0,0.02 0,0.04 0.01,0.04 0.01,0.01 0.02,0.01 0.04,0.01l0 0 0 0 0 0 0.02 0 0.71 0c0.02,0 0.04,0 0.05,-0.01 0.01,0 0.02,-0.01 0.02,-0.04 0,-0.02 -0.01,-0.03 -0.01,-0.03 0,-0.01 -0.01,-0.01 -0.02,-0.01 -0.05,-0.01 -0.08,-0.04 -0.1,-0.07 -0.01,-0.03 -0.02,-0.07 -0.01,-0.12 0,-0.02 0,-0.03 0,-0.05 0.01,-0.01 0.01,-0.03 0.01,-0.04l0.09 -0.38 0.01 -0.01 0.77 0 0.01 0.01 0.07 0.29c0,0.02 0.01,0.03 0.01,0.05 0,0.02 0.01,0.03 0.01,0.04 0,0.01 0,0.02 0,0.03 0.01,0.05 0.02,0.1 0.01,0.14l0 0.01 0 0c-0.01,0.01 -0.02,0.03 -0.03,0.04 -0.02,0.02 -0.03,0.03 -0.04,0.04 -0.01,0 -0.01,0 -0.01,0l0 0 0 0c-0.01,0.01 -0.02,0.01 -0.02,0.01 -0.01,0.01 -0.01,0.01 -0.02,0.01 -0.01,0 -0.02,0 -0.02,0.01 -0.01,0 -0.01,0.01 -0.01,0.02l0 0 0 0c0,0.01 0,0.01 0,0.01 -0.01,0.01 -0.01,0.01 -0.01,0.01 0.01,0.04 0.03,0.04 0.07,0.04z"/>
  </g>
 </g>
</svg>
