<svg xmlns="http://www.w3.org/2000/svg" width="220.53" height="44.406"><g data-name="Layer 2"><path d="M5.477 25.276c0 2.093.45 2.258 3.315 2.258v1.027c-1.802-.029-3.188-.029-4.604-.063-1.416.034-2.8.034-4.188.063v-1.027c2.353-.165 2.834.03 2.834-2.258V8.76c0-1.839-.161-2.257-2.834-2.257V5.47h5.348v1.931a5.771 5.771 0 015.055-2.247c4.736 0 6.31 3.282 6.31 7.565 0 5.12-1.865 8.055-7.213 8.055a5.956 5.956 0 01-4.023-1.649zm0-9.304a3.507 3.507 0 003.832 3.605c4.345 0 4.508-3.38 4.508-6.825 0-3.191-.454-6.376-4.317-6.376a3.663 3.663 0 00-4.023 3.863zm23.669-7.31c0-1.776-1.225-2.418-2.993-2.418-2.74 0-2.933 1.13-2.933 3.127 0 .741-.774.837-1.385.837-.868-.037-1.128-.68-1-1.646.352-2.864 3.348-3.408 5.7-3.408 3.863 0 5.25 1.285 5.25 5.054v7.02c0 1.994.258 2.127 2.545 2.25v1.035c-.646-.034-1.579-.034-2.546-.068-.837.034-1.677.034-2.512.068v-1.291a5.958 5.958 0 01-4.023 1.513c-3.285 0-5.189-1.029-5.189-4.506 0-5.02 5.542-4.316 9.087-4.316zm-1.771 4.315c-2.641 0-4.543.225-4.543 3.313 0 1.842.74 3.257 2.77 3.257 2.8 0 3.545-.966 3.545-3.483v-3.087zm13.429-5.702a6.504 6.504 0 015.12-2.12 4.107 4.107 0 014.25 2.411 6.21 6.21 0 015.183-2.412c3.416 0 4.54 1.446 4.54 4.664v7.377c0 1.836.099 2.284 2.77 2.284v1.034c-1.289-.034-2.67-.034-4.09-.068-1.414.034-2.8.034-3.927.068v-1.034c2.322-.03 2.643-.48 2.606-2.284v-6.694c0-2.162-.386-3.936-2.957-3.936-3.063 0-3.868 1.714-3.868 4.483v6.147c0 1.738.13 2.284 2.544 2.284v1.034c-1.064-.034-2.447-.034-3.865-.068-1.415.034-2.801.034-3.893.068v-1.034c2.415-.03 2.607-.58 2.574-2.284v-6.343c0-2.315-.096-4.414-2.999-4.31-3.31.122-3.827 1.927-3.827 4.731v5.923c0 1.737.094 2.283 2.607 2.283v1.034c-1.127-.033-2.513-.033-3.929-.067-1.416.034-2.8.034-4.118.067V19.48c2.575 0 2.83-.512 2.797-2.284V8.692c0-2.029-.222-2.19-2.797-2.285V5.47h5.28zM69.88 25.276c0 2.093.452 2.258 3.32 2.258v1.027c-1.806-.029-3.19-.029-4.603-.063-1.42.034-2.807.034-4.187.063v-1.027c2.347-.165 2.833.03 2.833-2.258V8.76c0-1.839-.161-2.257-2.833-2.257V5.47h5.342v1.931a5.774 5.774 0 015.058-2.247c4.733 0 6.314 3.282 6.314 7.565 0 5.12-1.87 8.056-7.217 8.056a5.966 5.966 0 01-4.026-1.65zm0-9.304a3.511 3.511 0 003.836 3.605c4.345 0 4.506-3.38 4.506-6.825 0-3.191-.45-6.376-4.316-6.376a3.664 3.664 0 00-4.025 3.863zm23.668-7.31c0-1.776-1.223-2.418-2.99-2.418-2.741 0-2.933 1.13-2.933 3.127 0 .741-.772.837-1.387.837-.866-.037-1.126-.68-.998-1.646.356-2.864 3.35-3.408 5.703-3.408 3.86 0 5.248 1.285 5.248 5.054v7.02c0 1.994.257 2.127 2.545 2.25v1.035c-.644-.034-1.577-.034-2.545-.068-.836.034-1.673.034-2.507.068v-1.291a5.987 5.987 0 01-4.033 1.513c-3.284 0-5.182-1.029-5.182-4.506 0-5.02 5.54-4.316 9.079-4.316zm-1.77 4.315c-2.638 0-4.542.225-4.542 3.313 0 1.842.744 3.257 2.774 3.257 2.8 0 3.538-.966 3.538-3.483v-3.087zm22.066-7.664l.382.064.068 1.388-2.708-.102a5.906 5.906 0 011.321 3.77c0 3.86-3.216 5.282-6.63 5.282a6.622 6.622 0 01-3.158-.774c-.609 1.965-.225 3.508 1.582 3.443 1.412-.06 2.704-.19 3.992-.19 3.218 0 5.701.74 5.701 4.442 0 3.897-4.092 5.862-7.508 5.862-2.605 0-7.014-.61-7.014-4.095 0-1.993.862-2.96 2.473-3.957a7.126 7.126 0 01-.03-6.055 5.05 5.05 0 01-1.707-3.89c0-3.58 2.703-5.347 6.02-5.347a12.819 12.819 0 013.803.544zM103.278 20.64c-.834 1.353-1.48 2.707-1.157 4.06.647 2.09 2.9 2.732 4.863 2.732 2.606 0 6.34-2.12 4.798-5.6-.743-1.256-2.22-1.256-3.512-1.192zm6.893-10.24c0-2.225-.675-4.187-3.411-4.187-2.576 0-3.448 1.708-3.448 4.187 0 2.51.872 4.22 3.448 4.22 2.544 0 3.41-1.71 3.41-4.22zm21.417 2.544c0 4.896-1.743 7.791-7.312 7.83-5.569-.039-7.312-2.934-7.312-7.83 0-5.314 2.29-7.79 7.312-7.79 5.025 0 7.312 2.476 7.312 7.79zm-11.722 0c0 3.313.192 6.734 4.41 6.734s4.414-3.421 4.414-6.734c0-3.284-.196-6.7-4.414-6.7s-4.41 3.416-4.41 6.7zm26.664 5.7a7.231 7.231 0 01-4.992 2.13c-2.898 0-4.833-.878-4.833-4.061v-8.02c0-1.836-.128-2.255-2.862-2.255V5.47h5.505v9.531c0 2.552.195 4.415 3.25 4.415 3.737 0 3.933-2.51 3.933-5.509V8.692c0-1.772-.132-2.254-2.706-2.254V5.47h5.344v11.758c0 1.834.133 2.25 2.867 2.25v1.035c-1-.034-1.931-.034-2.898-.068-.872.034-1.74.034-2.607.068zM158.731 7.05a4.057 4.057 0 013.255-1.895c1.711 0 2.899.898 2.899 2.702-.064 1.063.028 1.738-1.26 1.704-1.19.034-1.123-.64-1.19-1.545a1.286 1.286 0 00-1.352-1.353c-1.927 0-2.191 2.51-2.191 3.865v6.668c0 1.995.192 2.283 3.158 2.283v1.034c-1.674-.033-3.058-.033-4.477-.067-1.415.034-2.799.034-4.185.067v-1.034c2.606-.063 2.865-.318 2.865-2.284V8.724c0-2.06-.224-2.183-2.865-2.286V5.47h5.343zm12.689.225a6.514 6.514 0 015.122-2.12 4.115 4.115 0 014.254 2.411 6.208 6.208 0 015.184-2.412c3.411 0 4.538 1.446 4.538 4.664v7.377c0 1.836.096 2.284 2.77 2.284v1.034c-1.287-.034-2.674-.034-4.09-.068-1.417.034-2.805.034-3.93.068v-1.034c2.32-.03 2.643-.48 2.611-2.284v-6.694c0-2.162-.383-3.936-2.965-3.936-3.063 0-3.862 1.714-3.862 4.483v6.147c0 1.738.127 2.284 2.543 2.284v1.034c-1.063-.034-2.447-.034-3.871-.068-1.411.034-2.798.034-3.89.068v-1.034c2.415-.03 2.607-.58 2.575-2.284v-6.343c0-2.315-.096-4.414-2.994-4.31-3.314.122-3.834 1.927-3.834 4.731v5.923c0 1.737.1 2.283 2.61 2.283v1.034c-1.128-.033-2.51-.033-3.93-.067-1.415.034-2.798.034-4.118.067V19.48c2.571 0 2.83-.512 2.799-2.284V8.692c0-2.029-.228-2.19-2.799-2.285V5.47h5.278zm27.05 5.734c0 2.93.035 6.669 4.12 6.669 3.382 0 3.45-2.288 3.837-3.801 0-.52.511-.52 1.094-.52.447 0 1.025 0 1 .55-.518 3.48-3.028 4.867-6.383 4.867-5.44 0-6.564-3.805-6.564-8.669 0-4.446 2.543-6.951 6.921-6.951 4.932 0 6.508 3.184 6.28 7.854zm7.375-1.096c.158-2.863-.453-5.731-3.67-5.731-3.221 0-3.766 2.931-3.706 5.731zm10.078-5.217v9.276c0 1.542.101 3.54 2.125 3.54a4.196 4.196 0 001.549-.322l.546-.257.387.903a9.73 9.73 0 01-3.8.939c-3.313 0-3.446-2.326-3.446-4.964V6.696h-2.512V5.47h2.512V1.128L215.923 0v5.47h3.64v1.226zM7.747 42.346a3.345 3.345 0 01-.922 1.154 4.267 4.267 0 01-.548.348 3.272 3.272 0 01-.602.243 3.82 3.82 0 01-.708.13 7.994 7.994 0 01-.864.042H2.399v-6.637h1.753a9.819 9.819 0 011.011.046 4.38 4.38 0 01.803.16 2.617 2.617 0 01.839.43 3.023 3.023 0 01.67.709 3.248 3.248 0 01.442.913 3.371 3.371 0 01.161 1.028 3.157 3.157 0 01-.33 1.434zm-1.087-3.24a2.228 2.228 0 00-.906-.654 3.83 3.83 0 00-1.355-.204H3.154v5.359H4.42a3.394 3.394 0 001.183-.189 2.656 2.656 0 00.903-.537 2.348 2.348 0 00.574-.843 2.924 2.924 0 00.196-1.111 2.77 2.77 0 00-.617-1.82zm10.722 5.157l.01-6.653h3.574v.638h-2.827v2.206h2.682v.623H18.14v2.53h3.027v.656zm12.969 0V37.61h.758v5.984h2.866v.668zm12.589 0V37.61h.759v6.652zm15.646-.415a1.33 1.33 0 01-.09.054 3.55 3.55 0 01-.93.37 4.661 4.661 0 01-1.113.134 3.802 3.802 0 01-1.387-.244 3.182 3.182 0 01-1.081-.686 3.042 3.042 0 01-.698-1.066 3.613 3.613 0 01-.252-1.373 3.662 3.662 0 01.28-1.43 3.346 3.346 0 01.77-1.124 3.538 3.538 0 011.178-.736 3.973 3.973 0 011.49-.268 4.614 4.614 0 011.883.383l-.233.59a1.547 1.547 0 00-.21-.06 1.27 1.27 0 01-.153-.05 5.04 5.04 0 00-.658-.154 4.36 4.36 0 00-.625-.043 3.403 3.403 0 00-1.198.206 2.633 2.633 0 00-.928.567 2.495 2.495 0 00-.603.89 3.141 3.141 0 00-.208 1.156 2.8 2.8 0 00.761 1.99 2.409 2.409 0 00.856.61 2.974 2.974 0 001.114.19 3.515 3.515 0 00.943-.118 4.915 4.915 0 00.965-.401l.256.526a4.377 4.377 0 01-.129.087zm9.139.415V37.61h.758v6.652zm15.075 0l-.982-2.442h-2.712l-.986 2.445h-.75l2.73-6.656h.798l2.717 6.652zm-2.35-5.806l-1.113 2.77h2.24zm15.716 4.783a1.834 1.834 0 01-.56.625 2.828 2.828 0 01-.868.405 4.387 4.387 0 01-1.102.136 5.09 5.09 0 01-.721-.045c-.227-.03-.507-.076-.829-.143l.129-.613.414.064c.117.022.226.037.323.048q.154.01.28.026a2.008 2.008 0 00.272.012 2.836 2.836 0 001.51-.35 1.09 1.09 0 00.562-.95.984.984 0 00-.471-.845 1.3 1.3 0 00-.178-.106 1.514 1.514 0 00-.185-.108c-.073-.03-.166-.075-.282-.129-.124-.055-.277-.128-.483-.226a9.123 9.123 0 01-.414-.195 3.238 3.238 0 01-.312-.173 2.988 2.988 0 01-.25-.152c-.07-.057-.146-.111-.219-.174a1.643 1.643 0 01-.418-.517 1.387 1.387 0 01.027-1.302 1.602 1.602 0 01.49-.552 2.171 2.171 0 01.744-.35 3.181 3.181 0 01.952-.134c.105 0 .205.007.317.015.112.007.233.018.36.028.087.017.163.023.226.03.061.008.122.014.178.027.056.008.12.021.181.036.064.018.134.037.214.063l-.146.565a1.81 1.81 0 00-.193-.03.832.832 0 01-.134-.033 5.198 5.198 0 00-.921-.073 2.29 2.29 0 00-1.201.272.853.853 0 00-.437.754.74.74 0 00.127.453 1.038 1.038 0 00.153.177 1.16 1.16 0 00.221.166 3.58 3.58 0 00.323.177 4.81 4.81 0 00.473.225c.213.099.402.19.563.266.155.077.286.145.4.209a2.394 2.394 0 01.295.19c.084.063.172.13.258.203a1.505 1.505 0 01.39.538 1.702 1.702 0 01.134.671 1.752 1.752 0 01-.192.819zm24.874-.894a3.32 3.32 0 01-.927 1.154 3.742 3.742 0 01-.544.348 3.445 3.445 0 01-.6.243 3.904 3.904 0 01-.708.13 8.175 8.175 0 01-.867.042h-1.707v-6.637h1.755a9.827 9.827 0 011.011.046 4.42 4.42 0 01.804.16 2.63 2.63 0 01.839.43 3.041 3.041 0 01.672.709 3.476 3.476 0 01.444.913 3.384 3.384 0 01.156 1.028 3.193 3.193 0 01-.328 1.434zm-1.084-3.24a2.278 2.278 0 00-.915-.654 3.796 3.796 0 00-1.35-.204h-1.248v5.359h1.267a3.38 3.38 0 001.187-.189 2.577 2.577 0 00.895-.537 2.306 2.306 0 00.58-.843 2.932 2.932 0 00.197-1.111 2.8 2.8 0 00-.612-1.82zm10.714 5.157l.013-6.653h3.57v.638h-2.827v2.206h2.686v.623h-2.686v2.53h3.027v.656zm28.305-.415l-.088.054a3.526 3.526 0 01-.932.37 4.696 4.696 0 01-1.112.134 3.808 3.808 0 01-1.386-.244 3.25 3.25 0 01-1.084-.686 3.21 3.21 0 01-.7-1.066 3.699 3.699 0 01-.247-1.373 3.624 3.624 0 01.278-1.43 3.387 3.387 0 011.948-1.86 3.966 3.966 0 011.487-.267 4.795 4.795 0 01.955.09 4.867 4.867 0 01.936.292l-.24.59a1.215 1.215 0 00-.208-.06 1.308 1.308 0 01-.155-.05 4.956 4.956 0 00-.66-.154 4.205 4.205 0 00-.62-.043 3.355 3.355 0 00-1.196.206 2.643 2.643 0 00-.935.568 2.566 2.566 0 00-.6.89 3.07 3.07 0 00-.208 1.155 2.79 2.79 0 00.763 1.991 2.411 2.411 0 00.848.61 3.039 3.039 0 001.12.19 3.494 3.494 0 00.943-.119 4.68 4.68 0 00.964-.401l.26.526a2.653 2.653 0 01-.131.087zm13.815.415l-.983-2.442h-2.706l-.997 2.445h-.743l2.727-6.656h.8l2.718 6.653zm-2.35-5.806l-1.116 2.77h2.247zm18.657 5.806l-.764-5.476-2.067 5.476h-.623l-2.043-5.476-.795 5.476h-.731l1.02-6.653h.834l2.083 5.577 2.074-5.577h.812l.984 6.653zm13.459-3.443a1.857 1.857 0 01-.735.396 4.357 4.357 0 01-1.087.114h-.857v2.933h-.755v-6.637h1.46c.172 0 .356 0 .551.008.189.008.348.014.469.032a1.732 1.732 0 01.656.17 1.804 1.804 0 01.507.376 1.76 1.76 0 01.324.53 1.876 1.876 0 01.117.662 1.796 1.796 0 01-.65 1.415zm-.263-1.913a1.065 1.065 0 00-.332-.401 1.257 1.257 0 00-.44-.178 3.95 3.95 0 00-.684-.053h-.96v2.43h.826a4.397 4.397 0 00.49-.017 2.065 2.065 0 00.349-.067 1.16 1.16 0 00.634-.425 1.268 1.268 0 00.117-1.288zm15.599 3.368a3.274 3.274 0 01-.655 1.119 3.119 3.119 0 01-1.01.734 2.925 2.925 0 01-1.257.267 2.888 2.888 0 01-1.2-.25 2.653 2.653 0 01-.931-.688 3.426 3.426 0 01-.616-1.075 4.437 4.437 0 01.016-2.787 3.33 3.33 0 01.66-1.12 3.074 3.074 0 01.998-.733 3.004 3.004 0 011.268-.262 2.819 2.819 0 011.199.249 2.876 2.876 0 01.94.691 3.206 3.206 0 01.613 1.07 4.197 4.197 0 01.214 1.37 3.946 3.946 0 01-.24 1.415zm-.543-1.392a.43.43 0 00-.016-.121 3.345 3.345 0 00-.22-1.055 2.962 2.962 0 00-.483-.836 2.067 2.067 0 00-.701-.536 2.126 2.126 0 00-.883-.19 2.023 2.023 0 00-.897.213 2.141 2.141 0 00-.718.576 2.767 2.767 0 00-.48.86 3.205 3.205 0 00-.17 1.074 3.694 3.694 0 00.168 1.147 2.76 2.76 0 00.474.9 2.142 2.142 0 00.727.588 2.056 2.056 0 00.918.207 2.128 2.128 0 001.644-.755 2.457 2.457 0 00.469-.856 3.308 3.308 0 00.168-1.086z" fill="#fff" data-name="Layer 1"/></g></svg>